<?xml version="1.0" standalone="no"?><!DOCTYPE svg PUBLIC "-//W3C//DTD SVG 1.1//EN" "http://www.w3.org/Graphics/SVG/1.1/DTD/svg11.dtd"><svg t="1669037273711" class="icon" viewBox="0 0 1024 1024" version="1.1" xmlns="http://www.w3.org/2000/svg" p-id="2783" xmlns:xlink="http://www.w3.org/1999/xlink" width="200" height="200"><path d="M412.654933 71.2192c-53.077333 116.906667-88.7296 131.072-209.493333 81.902933-28.586667-11.656533-56.712533 17.629867-43.946667 45.738667l4.215467 9.403733c45.8752 104.584533 29.184 135.901867-90.965333 184.797867-28.347733 11.554133-28.347733 51.694933 0 63.232l10.325333 4.266667c114.090667 47.957333 125.952 80.9984 76.424533 189.952-12.765867 28.1088 15.36 57.378133 43.946667 45.738666l10.2912-4.113066c112.554667-44.168533 147.6608-27.511467 199.202133 86.016 12.117333 26.692267 50.039467 26.692267 62.1568 0 53.077333-116.906667 88.7296-131.072 209.493334-81.902934 28.586667 11.639467 56.712533-17.629867 43.946666-45.738666l-4.215466-9.4208c-45.8752-104.567467-29.184-135.8848 90.965333-184.797867 28.347733-11.537067 28.347733-51.677867 0-63.232l-10.325333-4.266667c-114.090667-47.957333-125.952-80.964267-76.424534-189.952 12.765867-28.091733-15.36-57.378133-43.946666-45.738666l-10.2912 4.130133c-112.554667 44.151467-147.6608 27.4944-199.202134-86.016-12.117333-26.692267-50.039467-26.692267-62.1568 0zM443.733333 158.549333l2.56 4.0448c48.093867 74.8544 104.226133 98.065067 190.344534 77.9776l3.925333-0.955733-0.955733 3.720533c-20.343467 80.930133 4.096 134.485333 80.810666 179.712l2.798934 1.6384-2.816 1.6384c-76.6976 45.226667-101.137067 98.781867-80.7936 179.712l0.955733 3.703467-3.925333-0.938667c-86.1184-20.104533-142.250667 3.1232-190.344534 77.9776l-2.56 4.027734-2.56-4.027734c-48.093867-74.8544-104.226133-98.082133-190.344533-77.9776l-3.9424 0.938667 0.9728-3.703467c19.9168-79.2064-3.072-132.181333-75.9808-176.810666l-7.645867-4.539734 2.816-1.6384c76.714667-45.226667 101.154133-98.781867 80.810667-179.712l-0.9728-3.720533 3.925333 0.955733c86.135467 20.087467 142.267733-3.1232 190.3616-77.994666L443.733333 158.549333z" fill="#444444" p-id="2784"></path><path d="M301.858133 633.941333a34.133333 34.133333 0 0 1 48.622934 47.9232c-75.195733 76.288-50.005333 179.6608 22.9888 208.503467 76.612267 30.2592 130.184533 12.509867 189.866666-52.155733l3.9936-4.386134c76.9024-85.674667 172.817067-140.014933 269.943467-134.382933 72.1408 4.1984 120.3712 47.325867 124.3136 105.130667 3.822933 55.876267-36.2496 104.925867-96.4608 110.813866a34.133333 34.133333 0 0 1-9.181867-67.584l2.525867-0.341333c53.077333-5.205333 48.2816-75.605333-25.1392-79.872-70.792533-4.096-146.909867 37.905067-210.346667 106.513067l-4.864 5.3248c-78.762667 87.7056-161.723733 117.111467-269.7216 74.427733-117.521067-46.421333-156.8768-207.991467-46.5408-319.914667z" fill="#444444" p-id="2785"></path><path d="M297.0112 368.896c-20.992 77.602133 31.300267 141.6192 106.154667 155.4944 77.824 14.4384 143.138133-33.143467 133.632-119.569067-2.9184-26.641067-15.0016-50.858667-33.774934-69.973333-61.44-62.549333-177.066667-59.477333-204.765866 29.7984l-1.245867 4.266667z m157.303467 13.789867c8.362667 8.4992 13.431467 18.670933 14.626133 29.5936 4.010667 36.4544-16.964267 51.729067-53.316267 44.987733-38.946133-7.2192-62.1568-35.6352-52.718933-70.519467 8.942933-32.9728 61.201067-34.816 91.409067-4.061866z" fill="#00B386" p-id="2786"></path></svg>